<mxfile host="app.diagrams.net" modified="2021-02-19T03:15:15.478Z" agent="5.0 (Macintosh; Intel Mac OS X 10_13_6) AppleWebKit/537.36 (KHTML, like Gecko) Chrome/88.0.4324.182 Safari/537.36" etag="WQc_jYFo9c_DN5gBaCSv" version="14.2.9" type="github">
  <diagram id="hxO8nAFpjlyCOo9W_c7y" name="Page-1">
    <mxGraphModel dx="946" dy="478" grid="1" gridSize="10" guides="1" tooltips="1" connect="1" arrows="1" fold="1" page="1" pageScale="1" pageWidth="827" pageHeight="1169" math="0" shadow="0">
      <root>
        <mxCell id="0" />
        <mxCell id="1" parent="0" />
        <mxCell id="xZczEvOs8XE68reR_1gD-1" value="登录" style="rounded=1;whiteSpace=wrap;html=1;" parent="1" vertex="1">
          <mxGeometry x="10" y="80" width="70" height="40" as="geometry" />
        </mxCell>
        <mxCell id="xZczEvOs8XE68reR_1gD-2" value="商品详情页" style="rounded=1;whiteSpace=wrap;html=1;" parent="1" vertex="1">
          <mxGeometry x="344" y="90" width="70" height="40" as="geometry" />
        </mxCell>
        <mxCell id="xZczEvOs8XE68reR_1gD-3" value="购物车" style="rounded=1;whiteSpace=wrap;html=1;" parent="1" vertex="1">
          <mxGeometry x="414" y="140" width="70" height="40" as="geometry" />
        </mxCell>
        <mxCell id="xZczEvOs8XE68reR_1gD-4" value="结算" style="rounded=1;whiteSpace=wrap;html=1;" parent="1" vertex="1">
          <mxGeometry x="480" y="90" width="70" height="40" as="geometry" />
        </mxCell>
        <mxCell id="xZczEvOs8XE68reR_1gD-5" value="立购" style="rounded=1;whiteSpace=wrap;html=1;" parent="1" vertex="1">
          <mxGeometry x="414" y="40" width="70" height="40" as="geometry" />
        </mxCell>
        <mxCell id="xZczEvOs8XE68reR_1gD-6" value="确认" style="rounded=1;whiteSpace=wrap;html=1;" parent="1" vertex="1">
          <mxGeometry x="561" y="90" width="70" height="40" as="geometry" />
        </mxCell>
        <mxCell id="xZczEvOs8XE68reR_1gD-7" value="下单" style="rounded=1;whiteSpace=wrap;html=1;" parent="1" vertex="1">
          <mxGeometry x="651" y="90" width="70" height="40" as="geometry" />
        </mxCell>
        <mxCell id="xZczEvOs8XE68reR_1gD-8" value="支付" style="rounded=1;whiteSpace=wrap;html=1;" parent="1" vertex="1">
          <mxGeometry x="741" y="90" width="70" height="40" as="geometry" />
        </mxCell>
        <mxCell id="xZczEvOs8XE68reR_1gD-9" value="搜索" style="rounded=1;whiteSpace=wrap;html=1;" parent="1" vertex="1">
          <mxGeometry x="90" y="40" width="70" height="40" as="geometry" />
        </mxCell>
        <mxCell id="xZczEvOs8XE68reR_1gD-10" value="推荐" style="rounded=1;whiteSpace=wrap;html=1;" parent="1" vertex="1">
          <mxGeometry x="90" y="120" width="70" height="40" as="geometry" />
        </mxCell>
        <mxCell id="xZczEvOs8XE68reR_1gD-11" value="店铺页" style="rounded=1;whiteSpace=wrap;html=1;" parent="1" vertex="1">
          <mxGeometry x="190" y="120" width="70" height="40" as="geometry" />
        </mxCell>
        <mxCell id="xZczEvOs8XE68reR_1gD-12" value="首页" style="rounded=1;whiteSpace=wrap;html=1;" parent="1" vertex="1">
          <mxGeometry x="190" y="40" width="70" height="40" as="geometry" />
        </mxCell>
        <mxCell id="xZczEvOs8XE68reR_1gD-15" value="人群画像" style="rounded=0;whiteSpace=wrap;html=1;" parent="1" vertex="1">
          <mxGeometry x="40" y="210" width="100" height="60" as="geometry" />
        </mxCell>
        <mxCell id="xZczEvOs8XE68reR_1gD-16" value="用户" style="rounded=0;whiteSpace=wrap;html=1;" parent="1" vertex="1">
          <mxGeometry x="170" y="190" width="85" height="30" as="geometry" />
        </mxCell>
        <mxCell id="xZczEvOs8XE68reR_1gD-17" value="商家" style="rounded=0;whiteSpace=wrap;html=1;" parent="1" vertex="1">
          <mxGeometry x="170" y="230" width="85" height="30" as="geometry" />
        </mxCell>
        <mxCell id="xZczEvOs8XE68reR_1gD-18" value="算法" style="rounded=0;whiteSpace=wrap;html=1;" parent="1" vertex="1">
          <mxGeometry x="170" y="270" width="85" height="30" as="geometry" />
        </mxCell>
        <mxCell id="xZczEvOs8XE68reR_1gD-19" value="问卷投放" style="rounded=0;whiteSpace=wrap;html=1;" parent="1" vertex="1">
          <mxGeometry x="280" y="220" width="120" height="50" as="geometry" />
        </mxCell>
        <mxCell id="f3WVASFw9SjfadAh4yCx-32" value="biz_label_rule" style="swimlane;fontStyle=0;childLayout=stackLayout;horizontal=1;startSize=26;horizontalStack=0;resizeParent=1;resizeParentMax=0;resizeLast=0;collapsible=1;marginBottom=0;align=center;fontSize=14;" parent="1" vertex="1">
          <mxGeometry x="460" y="360" width="160" height="410" as="geometry" />
        </mxCell>
        <mxCell id="f3WVASFw9SjfadAh4yCx-33" value="id" style="shape=partialRectangle;top=0;left=0;right=0;bottom=1;align=left;verticalAlign=middle;fillColor=none;spacingLeft=34;spacingRight=4;overflow=hidden;rotatable=0;points=[[0,0.5],[1,0.5]];portConstraint=eastwest;dropTarget=0;fontStyle=5;fontSize=12;" parent="f3WVASFw9SjfadAh4yCx-32" vertex="1">
          <mxGeometry y="26" width="160" height="30" as="geometry" />
        </mxCell>
        <mxCell id="f3WVASFw9SjfadAh4yCx-34" value="PK" style="shape=partialRectangle;top=0;left=0;bottom=0;fillColor=none;align=left;verticalAlign=middle;spacingLeft=4;spacingRight=4;overflow=hidden;rotatable=0;points=[];portConstraint=eastwest;part=1;fontSize=12;" parent="f3WVASFw9SjfadAh4yCx-33" vertex="1" connectable="0">
          <mxGeometry width="30" height="30" as="geometry" />
        </mxCell>
        <mxCell id="f3WVASFw9SjfadAh4yCx-35" value="id              &#xa;domain          &#xa;rule_name       &#xa;trigger_type    &#xa;trigger_content &#xa;w1              &#xa;w1_dist         &#xa;w1_order        &#xa;w2              &#xa;w2_dist         &#xa;w2_order        &#xa;w3              &#xa;w3_dist         &#xa;w3_order        &#xa;w_not           &#xa;ext             &#xa;source          &#xa;emotion         &#xa;rule_pattern    &#xa;status          &#xa;label1&#xa;label2&#xa;label3&#xa;biz_code" style="shape=partialRectangle;top=0;left=0;right=0;bottom=0;align=left;verticalAlign=top;fillColor=none;spacingLeft=34;spacingRight=4;overflow=hidden;rotatable=0;points=[[0,0.5],[1,0.5]];portConstraint=eastwest;dropTarget=0;fontSize=12;" parent="f3WVASFw9SjfadAh4yCx-32" vertex="1">
          <mxGeometry y="56" width="160" height="354" as="geometry" />
        </mxCell>
        <mxCell id="f3WVASFw9SjfadAh4yCx-36" value="" style="shape=partialRectangle;top=0;left=0;bottom=0;fillColor=none;align=left;verticalAlign=top;spacingLeft=4;spacingRight=4;overflow=hidden;rotatable=0;points=[];portConstraint=eastwest;part=1;fontSize=12;" parent="f3WVASFw9SjfadAh4yCx-35" vertex="1" connectable="0">
          <mxGeometry width="30" height="354.00000000000006" as="geometry" />
        </mxCell>
        <mxCell id="f3WVASFw9SjfadAh4yCx-9" value="biz_label" style="swimlane;fontStyle=0;childLayout=stackLayout;horizontal=1;startSize=26;horizontalStack=0;resizeParent=1;resizeParentMax=0;resizeLast=0;collapsible=1;marginBottom=0;align=center;fontSize=14;" parent="1" vertex="1">
          <mxGeometry x="249" y="370" width="160" height="144" as="geometry" />
        </mxCell>
        <mxCell id="f3WVASFw9SjfadAh4yCx-10" value="biz_code,label3" style="shape=partialRectangle;top=0;left=0;right=0;bottom=1;align=left;verticalAlign=middle;fillColor=none;spacingLeft=34;spacingRight=4;overflow=hidden;rotatable=0;points=[[0,0.5],[1,0.5]];portConstraint=eastwest;dropTarget=0;fontStyle=5;fontSize=12;" parent="f3WVASFw9SjfadAh4yCx-9" vertex="1">
          <mxGeometry y="26" width="160" height="30" as="geometry" />
        </mxCell>
        <mxCell id="f3WVASFw9SjfadAh4yCx-11" value="PK" style="shape=partialRectangle;top=0;left=0;bottom=0;fillColor=none;align=left;verticalAlign=middle;spacingLeft=4;spacingRight=4;overflow=hidden;rotatable=0;points=[];portConstraint=eastwest;part=1;fontSize=12;" parent="f3WVASFw9SjfadAh4yCx-10" vertex="1" connectable="0">
          <mxGeometry width="30" height="30" as="geometry" />
        </mxCell>
        <mxCell id="f3WVASFw9SjfadAh4yCx-12" value="lable1" style="shape=partialRectangle;top=0;left=0;right=0;bottom=0;align=left;verticalAlign=top;fillColor=none;spacingLeft=34;spacingRight=4;overflow=hidden;rotatable=0;points=[[0,0.5],[1,0.5]];portConstraint=eastwest;dropTarget=0;fontSize=12;" parent="f3WVASFw9SjfadAh4yCx-9" vertex="1">
          <mxGeometry y="56" width="160" height="26" as="geometry" />
        </mxCell>
        <mxCell id="f3WVASFw9SjfadAh4yCx-13" value="" style="shape=partialRectangle;top=0;left=0;bottom=0;fillColor=none;align=left;verticalAlign=top;spacingLeft=4;spacingRight=4;overflow=hidden;rotatable=0;points=[];portConstraint=eastwest;part=1;fontSize=12;" parent="f3WVASFw9SjfadAh4yCx-12" vertex="1" connectable="0">
          <mxGeometry width="30" height="26" as="geometry" />
        </mxCell>
        <mxCell id="f3WVASFw9SjfadAh4yCx-14" value="lable2" style="shape=partialRectangle;top=0;left=0;right=0;bottom=0;align=left;verticalAlign=top;fillColor=none;spacingLeft=34;spacingRight=4;overflow=hidden;rotatable=0;points=[[0,0.5],[1,0.5]];portConstraint=eastwest;dropTarget=0;fontSize=12;" parent="f3WVASFw9SjfadAh4yCx-9" vertex="1">
          <mxGeometry y="82" width="160" height="26" as="geometry" />
        </mxCell>
        <mxCell id="f3WVASFw9SjfadAh4yCx-15" value="" style="shape=partialRectangle;top=0;left=0;bottom=0;fillColor=none;align=left;verticalAlign=top;spacingLeft=4;spacingRight=4;overflow=hidden;rotatable=0;points=[];portConstraint=eastwest;part=1;fontSize=12;" parent="f3WVASFw9SjfadAh4yCx-14" vertex="1" connectable="0">
          <mxGeometry width="30" height="26" as="geometry" />
        </mxCell>
        <mxCell id="f3WVASFw9SjfadAh4yCx-16" value="lable3" style="shape=partialRectangle;top=0;left=0;right=0;bottom=0;align=left;verticalAlign=top;fillColor=none;spacingLeft=34;spacingRight=4;overflow=hidden;rotatable=0;points=[[0,0.5],[1,0.5]];portConstraint=eastwest;dropTarget=0;fontSize=12;" parent="f3WVASFw9SjfadAh4yCx-9" vertex="1">
          <mxGeometry y="108" width="160" height="26" as="geometry" />
        </mxCell>
        <mxCell id="f3WVASFw9SjfadAh4yCx-17" value="" style="shape=partialRectangle;top=0;left=0;bottom=0;fillColor=none;align=left;verticalAlign=top;spacingLeft=4;spacingRight=4;overflow=hidden;rotatable=0;points=[];portConstraint=eastwest;part=1;fontSize=12;" parent="f3WVASFw9SjfadAh4yCx-16" vertex="1" connectable="0">
          <mxGeometry width="30" height="26" as="geometry" />
        </mxCell>
        <mxCell id="f3WVASFw9SjfadAh4yCx-18" value="" style="shape=partialRectangle;top=0;left=0;right=0;bottom=0;align=left;verticalAlign=top;fillColor=none;spacingLeft=34;spacingRight=4;overflow=hidden;rotatable=0;points=[[0,0.5],[1,0.5]];portConstraint=eastwest;dropTarget=0;fontSize=12;" parent="f3WVASFw9SjfadAh4yCx-9" vertex="1">
          <mxGeometry y="134" width="160" height="10" as="geometry" />
        </mxCell>
        <mxCell id="f3WVASFw9SjfadAh4yCx-19" value="" style="shape=partialRectangle;top=0;left=0;bottom=0;fillColor=none;align=left;verticalAlign=top;spacingLeft=4;spacingRight=4;overflow=hidden;rotatable=0;points=[];portConstraint=eastwest;part=1;fontSize=12;" parent="f3WVASFw9SjfadAh4yCx-18" vertex="1" connectable="0">
          <mxGeometry width="30" height="10" as="geometry" />
        </mxCell>
        <mxCell id="f3WVASFw9SjfadAh4yCx-54" value="biz_meta" style="swimlane;fontStyle=0;childLayout=stackLayout;horizontal=1;startSize=26;horizontalStack=0;resizeParent=1;resizeParentMax=0;resizeLast=0;collapsible=1;marginBottom=0;align=center;fontSize=14;" parent="1" vertex="1">
          <mxGeometry x="269" y="540" width="140" height="130" as="geometry" />
        </mxCell>
        <mxCell id="f3WVASFw9SjfadAh4yCx-55" value="biz_code" style="shape=partialRectangle;top=0;left=0;right=0;bottom=1;align=left;verticalAlign=middle;fillColor=none;spacingLeft=34;spacingRight=4;overflow=hidden;rotatable=0;points=[[0,0.5],[1,0.5]];portConstraint=eastwest;dropTarget=0;fontStyle=5;fontSize=12;" parent="f3WVASFw9SjfadAh4yCx-54" vertex="1">
          <mxGeometry y="26" width="140" height="30" as="geometry" />
        </mxCell>
        <mxCell id="f3WVASFw9SjfadAh4yCx-56" value="PK" style="shape=partialRectangle;top=0;left=0;bottom=0;fillColor=none;align=left;verticalAlign=middle;spacingLeft=4;spacingRight=4;overflow=hidden;rotatable=0;points=[];portConstraint=eastwest;part=1;fontSize=12;" parent="f3WVASFw9SjfadAh4yCx-55" vertex="1" connectable="0">
          <mxGeometry width="30" height="30" as="geometry" />
        </mxCell>
        <mxCell id="f3WVASFw9SjfadAh4yCx-57" value="biz_name&#xa;operatorList          &#xa;data_channel&#xa;data_source" style="shape=partialRectangle;top=0;left=0;right=0;bottom=0;align=left;verticalAlign=top;fillColor=none;spacingLeft=34;spacingRight=4;overflow=hidden;rotatable=0;points=[[0,0.5],[1,0.5]];portConstraint=eastwest;dropTarget=0;fontSize=12;" parent="f3WVASFw9SjfadAh4yCx-54" vertex="1">
          <mxGeometry y="56" width="140" height="74" as="geometry" />
        </mxCell>
        <mxCell id="f3WVASFw9SjfadAh4yCx-58" value="" style="shape=partialRectangle;top=0;left=0;bottom=0;fillColor=none;align=left;verticalAlign=top;spacingLeft=4;spacingRight=4;overflow=hidden;rotatable=0;points=[];portConstraint=eastwest;part=1;fontSize=12;" parent="f3WVASFw9SjfadAh4yCx-57" vertex="1" connectable="0">
          <mxGeometry width="30" height="74.00000000000001" as="geometry" />
        </mxCell>
        <mxCell id="xZczEvOs8XE68reR_1gD-20" value="地图" style="rounded=0;whiteSpace=wrap;html=1;" parent="1" vertex="1">
          <mxGeometry x="480" y="1020" width="90" height="30" as="geometry" />
        </mxCell>
        <mxCell id="xZczEvOs8XE68reR_1gD-21" value="指南针" style="rounded=0;whiteSpace=wrap;html=1;" parent="1" vertex="1">
          <mxGeometry x="480" y="1058.75" width="90" height="30" as="geometry" />
        </mxCell>
        <mxCell id="xZczEvOs8XE68reR_1gD-22" value="万求" style="rounded=0;whiteSpace=wrap;html=1;" parent="1" vertex="1">
          <mxGeometry x="480" y="980" width="90" height="30" as="geometry" />
        </mxCell>
        <mxCell id="xZczEvOs8XE68reR_1gD-23" value="异常" style="rounded=0;whiteSpace=wrap;html=1;" parent="1" vertex="1">
          <mxGeometry x="480" y="1100" width="90" height="25" as="geometry" />
        </mxCell>
        <mxCell id="xZczEvOs8XE68reR_1gD-24" value="贡献度" style="rounded=0;whiteSpace=wrap;html=1;" parent="1" vertex="1">
          <mxGeometry x="480" y="1130" width="90" height="25" as="geometry" />
        </mxCell>
        <mxCell id="xZczEvOs8XE68reR_1gD-25" value="任务生命周期" style="rounded=0;whiteSpace=wrap;html=1;" parent="1" vertex="1">
          <mxGeometry x="605" y="985" width="80" height="30" as="geometry" />
        </mxCell>
        <mxCell id="xZczEvOs8XE68reR_1gD-27" value="模型生命周期" style="rounded=0;whiteSpace=wrap;html=1;" parent="1" vertex="1">
          <mxGeometry x="605" y="1033.75" width="80" height="30" as="geometry" />
        </mxCell>
        <mxCell id="xZczEvOs8XE68reR_1gD-28" value="数据生命周期" style="rounded=0;whiteSpace=wrap;html=1;" parent="1" vertex="1">
          <mxGeometry x="605" y="1081.25" width="80" height="30" as="geometry" />
        </mxCell>
        <mxCell id="xZczEvOs8XE68reR_1gD-29" value="A/B测试" style="rounded=0;whiteSpace=wrap;html=1;" parent="1" vertex="1">
          <mxGeometry x="710" y="1055" width="85" height="30" as="geometry" />
        </mxCell>
        <mxCell id="xZczEvOs8XE68reR_1gD-30" value="样本库" style="rounded=0;whiteSpace=wrap;html=1;" parent="1" vertex="1">
          <mxGeometry x="605" y="1125" width="80" height="30" as="geometry" />
        </mxCell>
        <mxCell id="7kF0gJVBeRZ0JNz9kzCE-1" value="order-product" style="rounded=0;whiteSpace=wrap;html=1;" parent="1" vertex="1">
          <mxGeometry x="15.5" y="985" width="110" height="40" as="geometry" />
        </mxCell>
        <mxCell id="7kF0gJVBeRZ0JNz9kzCE-2" value="order-tpp-app" style="rounded=0;whiteSpace=wrap;html=1;" parent="1" vertex="1">
          <mxGeometry x="155.5" y="985" width="110" height="40" as="geometry" />
        </mxCell>
        <mxCell id="7kF0gJVBeRZ0JNz9kzCE-3" value="order-my-app" style="rounded=0;whiteSpace=wrap;html=1;" parent="1" vertex="1">
          <mxGeometry x="299" y="985" width="110" height="40" as="geometry" />
        </mxCell>
        <mxCell id="7kF0gJVBeRZ0JNz9kzCE-4" value="order-sdk" style="rounded=0;whiteSpace=wrap;html=1;" parent="1" vertex="1">
          <mxGeometry x="299.5" y="1055" width="110" height="40" as="geometry" />
        </mxCell>
        <mxCell id="7kF0gJVBeRZ0JNz9kzCE-5" value="order-core" style="rounded=0;whiteSpace=wrap;html=1;" parent="1" vertex="1">
          <mxGeometry x="155.5" y="1055" width="110" height="40" as="geometry" />
        </mxCell>
        <mxCell id="7kF0gJVBeRZ0JNz9kzCE-6" value="order-domain" style="rounded=0;whiteSpace=wrap;html=1;" parent="1" vertex="1">
          <mxGeometry x="15.5" y="1055" width="110" height="40" as="geometry" />
        </mxCell>
        <mxCell id="7kF0gJVBeRZ0JNz9kzCE-7" value="tmf框架" style="rounded=0;whiteSpace=wrap;html=1;" parent="1" vertex="1">
          <mxGeometry x="155.5" y="1115" width="110" height="40" as="geometry" />
        </mxCell>
        <mxCell id="AkOd10-M2ji19fEuhrQ_-1" value="spaceSet&lt;br&gt;修改租户" style="rounded=1;whiteSpace=wrap;html=1;" parent="1" vertex="1">
          <mxGeometry x="1200" y="80" width="70" height="40" as="geometry" />
        </mxCell>
        <mxCell id="AkOd10-M2ji19fEuhrQ_-2" value="Cookie更新" style="rounded=1;whiteSpace=wrap;html=1;" parent="1" vertex="1">
          <mxGeometry x="1350" y="80" width="70" height="40" as="geometry" />
        </mxCell>
        <mxCell id="AkOd10-M2ji19fEuhrQ_-3" value="" style="endArrow=classic;html=1;exitX=1;exitY=0.5;exitDx=0;exitDy=0;entryX=0;entryY=0.5;entryDx=0;entryDy=0;" parent="1" source="AkOd10-M2ji19fEuhrQ_-1" target="AkOd10-M2ji19fEuhrQ_-2" edge="1">
          <mxGeometry width="50" height="50" relative="1" as="geometry">
            <mxPoint x="1210" y="230" as="sourcePoint" />
            <mxPoint x="1260" y="180" as="targetPoint" />
          </mxGeometry>
        </mxCell>
        <mxCell id="AkOd10-M2ji19fEuhrQ_-4" value="用户用户角色&lt;br&gt;haveRoles&lt;br&gt;" style="rounded=1;whiteSpace=wrap;html=1;" parent="1" vertex="1">
          <mxGeometry x="900" y="80" width="120" height="60" as="geometry" />
        </mxCell>
        <mxCell id="AkOd10-M2ji19fEuhrQ_-5" value="permissionDomain" style="rounded=1;whiteSpace=wrap;html=1;" parent="1" vertex="1">
          <mxGeometry x="910" y="180" width="140" height="40" as="geometry" />
        </mxCell>
        <mxCell id="AkOd10-M2ji19fEuhrQ_-6" value="Acl捞取用户角色" style="rounded=1;whiteSpace=wrap;html=1;" parent="1" vertex="1">
          <mxGeometry x="1110" y="160" width="160" height="40" as="geometry" />
        </mxCell>
        <mxCell id="AkOd10-M2ji19fEuhrQ_-7" value="SpaceRole(xc_space_role)&lt;br&gt;获取租户下面的角色" style="rounded=1;whiteSpace=wrap;html=1;" parent="1" vertex="1">
          <mxGeometry x="1110" y="230" width="160" height="40" as="geometry" />
        </mxCell>
        <mxCell id="AkOd10-M2ji19fEuhrQ_-8" value="SpaceRole(xc_space_role)&lt;br&gt;获取租户下面的角色" style="rounded=1;whiteSpace=wrap;html=1;" parent="1" vertex="1">
          <mxGeometry x="1081" y="480" width="160" height="40" as="geometry" />
        </mxCell>
        <mxCell id="AkOd10-M2ji19fEuhrQ_-9" value="Space租户" style="rounded=1;whiteSpace=wrap;html=1;" parent="1" vertex="1">
          <mxGeometry x="880" y="480" width="120" height="40" as="geometry" />
        </mxCell>
        <mxCell id="AkOd10-M2ji19fEuhrQ_-10" value="SpaceRole(xc_space_role)&lt;br&gt;权限点" style="rounded=1;whiteSpace=wrap;html=1;" parent="1" vertex="1">
          <mxGeometry x="1290" y="440" width="160" height="40" as="geometry" />
        </mxCell>
        <mxCell id="AkOd10-M2ji19fEuhrQ_-11" value="SpaceRole(xc_space_role)&lt;br&gt;获取租户下面的角色" style="rounded=1;whiteSpace=wrap;html=1;" parent="1" vertex="1">
          <mxGeometry x="1290" y="490" width="160" height="40" as="geometry" />
        </mxCell>
        <mxCell id="AkOd10-M2ji19fEuhrQ_-12" value="SpaceRole(xc_space_role)&lt;br&gt;获取租户下面的角色" style="rounded=1;whiteSpace=wrap;html=1;" parent="1" vertex="1">
          <mxGeometry x="1290" y="540" width="160" height="40" as="geometry" />
        </mxCell>
        <mxCell id="6V3QGqSCANwpqo5ZVSf0-1" value="CurrentSpace&lt;br&gt;获取当前用户空间" style="rounded=1;whiteSpace=wrap;html=1;" parent="1" vertex="1">
          <mxGeometry x="921" y="640" width="160" height="40" as="geometry" />
        </mxCell>
        <mxCell id="6V3QGqSCANwpqo5ZVSf0-2" value="getSpaceIds&lt;br&gt;获取所有可访问的租户空间" style="rounded=1;whiteSpace=wrap;html=1;" parent="1" vertex="1">
          <mxGeometry x="921" y="710" width="160" height="40" as="geometry" />
        </mxCell>
        <mxCell id="6V3QGqSCANwpqo5ZVSf0-3" value="为空&lt;br&gt;-99，无可访问租户" style="rounded=1;whiteSpace=wrap;html=1;" parent="1" vertex="1">
          <mxGeometry x="840" y="760" width="130" height="40" as="geometry" />
        </mxCell>
        <mxCell id="6V3QGqSCANwpqo5ZVSf0-4" value="非空&lt;br&gt;当前租户在租户空间集合中" style="rounded=1;whiteSpace=wrap;html=1;" parent="1" vertex="1">
          <mxGeometry x="1040" y="760" width="160" height="40" as="geometry" />
        </mxCell>
        <mxCell id="6V3QGqSCANwpqo5ZVSf0-5" value="不在租户集合集合中&lt;br&gt;选择第一个有权限的租户" style="rounded=1;whiteSpace=wrap;html=1;" parent="1" vertex="1">
          <mxGeometry x="1161" y="840" width="160" height="40" as="geometry" />
        </mxCell>
      </root>
    </mxGraphModel>
  </diagram>
</mxfile>
